<?xml version="1.0" standalone="no"?><!DOCTYPE svg PUBLIC "-//W3C//DTD SVG 1.1//EN" "http://www.w3.org/Graphics/SVG/1.1/DTD/svg11.dtd"><svg class="icon" width="200px" height="200.00px" viewBox="0 0 1024 1024" version="1.1" xmlns="http://www.w3.org/2000/svg"><path d="M448 128l0-16c0-26.4-21.6-48-48-48l-160 0c-26.4 0-48 21.6-48 48l0 16L0 128l0 128 192 0 0 16c0 26.4 21.6 48 48 48l160 0c26.4 0 48-21.6 48-48l0-16 576 0L1024 128 448 128zM256 256 256 128l128 0 0 128L256 256zM832 432c0-26.4-21.6-48-48-48l-160 0c-26.4 0-48 21.6-48 48l0 16L0 448l0 128 576 0 0 16c0 26.4 21.6 48 48 48l160 0c26.4 0 48-21.6 48-48l0-16 192 0 0-128-192 0L832 432zM640 576l0-128 128 0 0 128L640 576zM448 752c0-26.4-21.6-48-48-48l-160 0c-26.4 0-48 21.6-48 48l0 16L0 768l0 128 192 0 0 16c0 26.4 21.6 48 48 48l160 0c26.4 0 48-21.6 48-48l0-16 576 0 0-128L448 768 448 752zM256 896l0-128 128 0 0 128L256 896z" /></svg>